<svg width="35" height="35" viewBox="0 0 35 35" fill="none" xmlns="http://www.w3.org/2000/svg">
<path d="M35 17.5C35 27.165 27.165 35 17.5 35C7.83502 35 0 27.165 0 17.5C0 7.83502 7.83502 0 17.5 0C27.165 0 35 7.83502 35 17.5ZM1.40997 17.5C1.40997 26.3863 8.61372 33.59 17.5 33.59C26.3863 33.59 33.59 26.3863 33.59 17.5C33.59 8.61372 26.3863 1.40997 17.5 1.40997C8.61372 1.40997 1.40997 8.61372 1.40997 17.5Z" fill="#B7410E" fill-opacity="0.3"/>
<path fill-rule="evenodd" clip-rule="evenodd" d="M24.0001 20.999C23.3795 20.9992 22.7741 20.807 22.2673 20.4488C21.7604 20.0906 21.3771 19.5841 21.1701 18.999H13.1261C13.5701 20.724 15.1361 21.999 17.0001 21.999V23.999C15.5821 23.9988 14.21 23.4966 13.127 22.5814C12.0439 21.6662 11.3198 20.3971 11.0831 18.999H10.0001C9.73489 18.999 9.48054 18.8937 9.293 18.7061C9.10547 18.5186 9.00011 18.2642 9.00011 17.999C9.00011 17.7338 9.10547 17.4795 9.293 17.2919C9.48054 17.1044 9.73489 16.999 10.0001 16.999H11.0831C11.3198 15.601 12.0439 14.3318 13.127 13.4166C14.21 12.5014 15.5821 11.9992 17.0001 11.999V13.999C16.1132 13.9991 15.2515 14.2938 14.5503 14.8369C13.8491 15.3799 13.3482 16.1404 13.1261 16.999H21.1711C21.3543 16.4801 21.6766 16.0216 22.1028 15.6736C22.5291 15.3255 23.0428 15.1014 23.5878 15.0256C24.1329 14.9498 24.6882 15.0254 25.1932 15.244C25.6982 15.4626 26.1333 15.8159 26.4511 16.2652C26.7688 16.7144 26.9569 17.2424 26.9948 17.7914C27.0327 18.3404 26.9189 18.8892 26.6659 19.3778C26.4129 19.8665 26.0304 20.2762 25.5603 20.5621C25.0901 20.848 24.5504 20.9992 24.0001 20.999V20.999ZM23.0001 17.999C23.0001 18.2642 23.1055 18.5186 23.293 18.7061C23.4805 18.8937 23.7349 18.999 24.0001 18.999C24.2653 18.999 24.5197 18.8937 24.7072 18.7061C24.8948 18.5186 25.0001 18.2642 25.0001 17.999C25.0001 17.7338 24.8948 17.4795 24.7072 17.2919C24.5197 17.1044 24.2653 16.999 24.0001 16.999C23.7349 16.999 23.4805 17.1044 23.293 17.2919C23.1055 17.4795 23.0001 17.7338 23.0001 17.999V17.999Z" fill="#FF5501"/>
</svg>
