<svg width="35" height="35" viewBox="0 0 35 35" fill="none" xmlns="http://www.w3.org/2000/svg">
<path d="M35 17.5C35 27.165 27.165 35 17.5 35C7.83502 35 0 27.165 0 17.5C0 7.83502 7.83502 0 17.5 0C27.165 0 35 7.83502 35 17.5ZM1.40997 17.5C1.40997 26.3863 8.61372 33.59 17.5 33.59C26.3863 33.59 33.59 26.3863 33.59 17.5C33.59 8.61372 26.3863 1.40997 17.5 1.40997C8.61372 1.40997 1.40997 8.61372 1.40997 17.5Z" fill="#B7410E" fill-opacity="0.3"/>
<path fill-rule="evenodd" clip-rule="evenodd" d="M11.9999 15.001C12.6205 15.0008 13.2259 15.193 13.7327 15.5512C14.2396 15.9094 14.6229 16.4159 14.8299 17.001H22.8739C22.4299 15.276 20.8639 14.001 18.9999 14.001V12.001C20.4179 12.0012 21.79 12.5034 22.873 13.4186C23.9561 14.3338 24.6802 15.6029 24.9169 17.001H25.9999C26.2651 17.001 26.5195 17.1063 26.707 17.2939C26.8945 17.4814 26.9999 17.7358 26.9999 18.001C26.9999 18.2662 26.8945 18.5205 26.707 18.7081C26.5195 18.8956 26.2651 19.001 25.9999 19.001H24.9169C24.6802 20.399 23.9561 21.6682 22.873 22.5834C21.79 23.4986 20.4179 24.0008 18.9999 24.001V22.001C19.8868 22.0009 20.7485 21.7062 21.4497 21.1631C22.1509 20.6201 22.6518 19.8596 22.8739 19.001H14.8289C14.6457 19.5199 14.3234 19.9784 13.8972 20.3264C13.4709 20.6745 12.9572 20.8986 12.4122 20.9744C11.8671 21.0502 11.3118 20.9746 10.8068 20.756C10.3018 20.5374 9.86665 20.1841 9.54891 19.7348C9.23116 19.2856 9.04306 18.7576 9.00517 18.2086C8.96728 17.6596 9.08106 17.1108 9.33407 16.6222C9.58707 16.1335 9.96957 15.7238 10.4397 15.4379C10.9099 15.152 11.4496 15.0008 11.9999 15.001V15.001ZM12.9999 18.001C12.9999 17.7358 12.8945 17.4814 12.707 17.2939C12.5195 17.1063 12.2651 17.001 11.9999 17.001C11.7347 17.001 11.4803 17.1063 11.2928 17.2939C11.1052 17.4814 10.9999 17.7358 10.9999 18.001C10.9999 18.2662 11.1052 18.5205 11.2928 18.7081C11.4803 18.8956 11.7347 19.001 11.9999 19.001C12.2651 19.001 12.5195 18.8956 12.707 18.7081C12.8945 18.5205 12.9999 18.2662 12.9999 18.001V18.001Z" fill="#FF5501"/>
</svg>
